Coordinates
version=1
nRows=27
nColumns=12
inDegrees=yes

Units are S.I. units (second, meters, Newtons, ...)
Angles are in degrees

endheader
time	SC_y	SC_z	SC_x	AC_y	AC_z	AC_x	GH_y	GH_z	GH_yy	EL_x	PS_y
       0.0              -36.44          17.38          19.48          31.95          2.249          18.69          107.8          12.98          64.69          119.6          151.9
   0.01303              -36.44          17.38          19.48          31.95          2.249          18.69          107.8          12.98           64.7          119.5          151.9
   0.02605              -36.44          17.38          19.48          31.95          2.249          18.69          107.8          12.97          64.71          119.5          151.8
   0.03908              -36.43          17.38          19.48          31.95           2.25          18.69          107.7          12.97          64.72          119.5          151.8
    0.0521              -36.43          17.38          19.47          31.95           2.25          18.69          107.7          12.97          64.73          119.5          151.8
   0.06513              -36.43          17.38          19.47          31.95           2.25          18.69          107.6          12.96          64.75          119.5          151.8
   0.07815              -36.42          17.37          19.46          31.95          2.251          18.69          107.6          12.96          64.76          119.5          151.8
   0.09118              -36.42          17.37          19.46          31.95          2.251          18.69          107.5          12.96          64.77          119.5          151.8
    0.1042              -36.42          17.37          19.46          31.95          2.252          18.69          107.5          12.95          64.79          119.5          151.8
    0.1172              -36.41          17.37          19.45          31.95          2.252          18.69          107.4          12.95           64.8          119.4          151.8
    0.1303              -36.41          17.37          19.45          31.95          2.253          18.69          107.3          12.94          64.82          119.4          151.7
    0.1433               -36.4          17.37          19.44          31.95          2.253          18.68          107.3          12.94          64.83          119.4          151.7
    0.1563               -36.4          17.37          19.44          31.95          2.254          18.68          107.2          12.93          64.85          119.4          151.7
    0.1693              -36.39          17.36          19.43          31.95          2.254          18.68          107.1          12.92          64.87          119.4          151.7
    0.1824              -36.39          17.36          19.42          31.95          2.255          18.68          107.0          12.92           64.9          119.3          151.6
    0.1954              -36.38          17.36          19.42          31.95          2.256          18.68          106.9          12.91          64.92          119.3          151.6
    0.2084              -36.37          17.36          19.41          31.95          2.257          18.68          106.8           12.9          64.95          119.3          151.6
    0.2214              -36.37          17.35           19.4          31.96          2.257          18.67          106.7          12.89          64.98          119.3          151.6
    0.2345              -36.36          17.35          19.39          31.96          2.258          18.67          106.6          12.88          65.01          119.2          151.5
    0.2475              -36.35          17.35          19.38          31.96          2.259          18.67          106.5          12.87          65.04          119.2          151.5
    0.2605              -36.34          17.34          19.37          31.96          2.261          18.67          106.3          12.86          65.08          119.1          151.5
    0.2735              -36.33          17.34          19.36          31.96          2.262          18.66          106.2          12.85          65.12          119.1          151.4
    0.2866              -36.31          17.33          19.34          31.96          2.263          18.66          106.0          12.83          65.17          119.0          151.4
    0.2996               -36.3          17.33          19.33          31.96          2.265          18.66          105.8          12.82          65.22          119.0          151.3
    0.3126              -36.29          17.32          19.31          31.97          2.267          18.65          105.6           12.8          65.27          118.9          151.3
    0.3256              -36.27          17.32          19.29          31.97          2.269          18.65          105.3          12.78          65.34          118.9          151.2
    0.3387              -36.25          17.31          19.27          31.97          2.271          18.64          105.1          12.76          65.41          118.8          151.1
